<svg xmlns="http://www.w3.org/2000/svg" viewBox="0 0 160 160">
  <defs>
    <linearGradient id="g" x1="0" x2="1" y1="0" y2="1">
      <stop offset="0" stop-color="#ef4444"/>
      <stop offset="1" stop-color="#7f1d1d"/>
    </linearGradient>
    <linearGradient id="g2" x1="0" x2="1" y1="0" y2="1">
      <stop offset="0" stop-color="#fca5a5"/>
      <stop offset="1" stop-color="#fecaca"/>
    </linearGradient>
  </defs>
  <rect x="8" y="24" width="144" height="112" rx="18" fill="url(#g)" opacity="0.2"/>
  <rect x="16" y="36" width="128" height="96" rx="16" fill="#111418" stroke="#991b1b" stroke-width="2"/>
  <rect x="40" y="20" width="80" height="18" rx="9" fill="#991b1b"/>
  <circle cx="80" cy="20" r="6" fill="#f87171"/>
  <rect x="28" y="60" width="104" height="44" rx="8" fill="#0b0f12" stroke="#334155" stroke-width="2"/>
  <circle cx="56" cy="82" r="14" fill="#0b0f12" stroke="#ef4444" stroke-width="3"/>
  <circle cx="104" cy="82" r="14" fill="#0b0f12" stroke="#ef4444" stroke-width="3"/>
  <circle cx="56" cy="82" r="6" fill="url(#g2)"/>
  <circle cx="104" cy="82" r="6" fill="url(#g2)"/>
  <rect x="72" y="104" width="16" height="10" rx="3" fill="#ef4444" opacity="0.9"/>
  <rect x="20" y="72" width="8" height="24" rx="4" fill="#991b1b"/>
  <rect x="132" y="72" width="8" height="24" rx="4" fill="#991b1b"/>
  <rect x="62" y="118" width="36" height="6" rx="3" fill="#ef4444" opacity="0.6"/>
</svg>

